<svg id="Yt_Bkgnd" data-name="Yt Bkgnd" xmlns="http://www.w3.org/2000/svg" viewBox="0 0 329.22 98.81"><defs><style>.cls-1,.cls-3{fill:#e56f05;}.cls-1{stroke:#9f5500;stroke-miterlimit:10;stroke-width:1.86px;}.cls-2{fill:#fff;}</style></defs><path class="cls-1" d="M292.18,323.1a22.21,22.21,0,0,0-3.65-5.23,22.44,22.44,0,0,0-4.92-4,24.34,24.34,0,0,0-12.49-3.43,23.83,23.83,0,0,0-9.27,1.81,23.39,23.39,0,0,0-12.66,12.45,23.66,23.66,0,0,0,0,18.44,23.72,23.72,0,0,0,5.09,7.44,24,24,0,0,0,16.84,6.78A24.3,24.3,0,0,0,283.57,354a22.72,22.72,0,0,0,4.93-4,22.4,22.4,0,0,0,3.66-5.22H297a25.22,25.22,0,0,1-4.27,7,27.64,27.64,0,0,1-6.12,5.26,29.26,29.26,0,0,1-29.88.74,27.5,27.5,0,0,1-5.76-4.29,26.61,26.61,0,0,1-4.43-5.57,28.31,28.31,0,0,1-2.85-6.59,25.93,25.93,0,0,1-1-7.34,26.27,26.27,0,0,1,1-7.41,28.62,28.62,0,0,1,2.85-6.6,26.93,26.93,0,0,1,4.43-5.58,27.5,27.5,0,0,1,5.76-4.29,30.27,30.27,0,0,1,6.8-2.75,29.45,29.45,0,0,1,23.08,3.47,26.4,26.4,0,0,1,6.1,5.27,25,25,0,0,1,4.24,7h-4.81Z" transform="translate(-155.15 -305.93)"/><path class="cls-1" d="M342.7,347.14h-29l-5.79,13.38H303l22.94-53h4.56l22.95,53h-4.93Zm-27.31-4.05h25.53L328.37,314l-.2-.66L328,314Z" transform="translate(-155.15 -305.93)"/><path class="cls-1" d="M362.8,345.58A8.89,8.89,0,0,0,364,350a13.29,13.29,0,0,0,3.24,3.78,16.16,16.16,0,0,0,4.79,2.64,16.91,16.91,0,0,0,5.8,1q8.25,0,12.63-2.87a9.52,9.52,0,0,0,4.36-8.52,8.68,8.68,0,0,0-1.28-4.87,10.28,10.28,0,0,0-3.46-3.24,20.33,20.33,0,0,0-5.11-2,58,58,0,0,0-6.24-1.2c-1.34-.16-2.73-.34-4.19-.56a40.81,40.81,0,0,1-4.29-.9,24.54,24.54,0,0,1-4-1.45,12.66,12.66,0,0,1-3.33-2.22,9.73,9.73,0,0,1-2.28-3.25,11.28,11.28,0,0,1-.84-4.56,16.87,16.87,0,0,1,1-5.7,12.39,12.39,0,0,1,3.28-4.92,16.85,16.85,0,0,1,6-3.48,28.18,28.18,0,0,1,9.22-1.31,23.9,23.9,0,0,1,7.44,1.09,17,17,0,0,1,5.63,3,13,13,0,0,1,3.56,4.58,13.55,13.55,0,0,1,1.24,5.77h-4.65a9.31,9.31,0,0,0-1-4.29,9.54,9.54,0,0,0-2.78-3.26,13.06,13.06,0,0,0-4.29-2.06,19.82,19.82,0,0,0-5.49-.72,22.08,22.08,0,0,0-7,.95,12.53,12.53,0,0,0-4.5,2.51,8.56,8.56,0,0,0-2.37,3.51,11.42,11.42,0,0,0-.69,3.93,7.1,7.1,0,0,0,1.18,4.21,8.75,8.75,0,0,0,3.33,2.76A19.28,19.28,0,0,0,374,330q3,.59,6.55,1c1.36.21,2.78.46,4.25.74a31.82,31.82,0,0,1,4.31,1.15,23.35,23.35,0,0,1,4,1.79,13.32,13.32,0,0,1,3.28,2.63,11.63,11.63,0,0,1,2.24,3.7,13.88,13.88,0,0,1,.83,5A14.21,14.21,0,0,1,398,352.5a13.56,13.56,0,0,1-4.19,4.88,20.15,20.15,0,0,1-6.79,3.07,36.5,36.5,0,0,1-9.27,1.07,22.53,22.53,0,0,1-8.12-1.4,20,20,0,0,1-6.18-3.66,16.41,16.41,0,0,1-3.92-5.13,13.24,13.24,0,0,1-1.37-5.79h4.63Z" transform="translate(-155.15 -305.93)"/><path class="cls-1" d="M443.88,347.14h-29l-5.79,13.38h-4.92l22.94-53h4.56l22.94,53h-4.92Zm-27.3-4.05h25.53L429.56,314l-.2-.66-.16.66Z" transform="translate(-155.15 -305.93)"/><path class="cls-2" d="M246.25,367.61h12.5c3.48,0,6.17,1.05,8,3a9.61,9.61,0,0,1,2.35,6.71v.08c0,4.74-2.38,7.72-5.86,9.11L269.89,397h-7L257,387.58h-4.72V397h-6Zm12.12,14.26c2.93,0,4.61-1.68,4.61-4.15v-.09c0-2.77-1.8-4.19-4.73-4.19h-6v8.43Z" transform="translate(-155.15 -305.93)"/><path class="cls-2" d="M273.29,382.37v-.08c0-8.34,6.14-15.18,14.58-15.18s14.5,6.75,14.5,15.1v.08c0,8.35-6.13,15.19-14.58,15.19S273.29,390.72,273.29,382.37Zm22.79,0v-.08c0-5-3.44-9.23-8.29-9.23s-8.21,4.11-8.21,9.14v.09c0,5,3.44,9.23,8.29,9.23S296.08,387.41,296.08,382.37Z" transform="translate(-155.15 -305.93)"/><path class="cls-2" d="M306.51,382.37v-.08c0-8.34,5.86-15.18,14.27-15.18a13.62,13.62,0,0,1,10.78,4.53l-3.83,4.74c-2.11-2.06-4.26-3.32-7-3.32-4.61,0-7.93,4.11-7.93,9.14v.09c0,5,3.24,9.23,7.93,9.23,3.13,0,5-1.34,7.2-3.44l3.83,4.15a13.58,13.58,0,0,1-11.22,5.24C312.49,397.47,306.51,390.8,306.51,382.37Z" transform="translate(-155.15 -305.93)"/><path class="cls-2" d="M346,367.4h5.54L363.22,397h-6.29l-2.5-6.58H342.86l-2.5,6.58h-6.14Zm6.33,17.28-3.63-9.52L345,384.68Z" transform="translate(-155.15 -305.93)"/><path class="cls-2" d="M379.16,367.61h6v12.83l11.1-12.83h7.27l-11.14,12.46L404.06,397h-7.23l-8.48-12.5L385.18,388v9h-6V367.61Z" transform="translate(-155.15 -305.93)"/><path class="cls-2" d="M433.87,367.61h6V391.1h13.64V397H433.87Z" transform="translate(-155.15 -305.93)"/><path class="cls-2" d="M455.29,382.37v-.08c0-8.34,6.14-15.18,14.58-15.18s14.51,6.75,14.51,15.1v.08c0,8.35-6.14,15.19-14.59,15.19S455.29,390.72,455.29,382.37Zm22.79,0v-.08c0-5-3.44-9.23-8.29-9.23s-8.21,4.11-8.21,9.14v.09c0,5,3.44,9.23,8.29,9.23S478.08,387.41,478.08,382.37Z" transform="translate(-155.15 -305.93)"/><polygon class="cls-3" points="76.07 25.8 84.47 33.85 84.47 44.02 65.46 25.8 76.07 25.8"/><polygon class="cls-2" points="56.89 25.8 84.47 52.22 84.47 62.39 46.28 25.8 56.89 25.8"/><path class="cls-3" d="M168.05,359.78V341.22h10v9l17.07-16.35,44.53,42.67v21l-42.24-40.47-42.24,40.47V372.13Z" transform="translate(-155.15 -305.93)"/><path class="cls-3" d="M427.05,359.19l-.68.27-18.47,7.68a1,1,0,0,0-.57.89v27.91a.94.94,0,0,0,.57.89l18.88,7.84a.89.89,0,0,0,1.21-.89V359.91A1,1,0,0,0,427.05,359.19Zm-15.61,12.18,10.78-3.53v11.79l-11.41,1.17v-8.51A1,1,0,0,1,411.44,371.37Zm9.66,24.44-9.63-2.8a1,1,0,0,1-.66-.92v-8.52l11.41.4V394.9A.9.9,0,0,1,421.1,395.81Z" transform="translate(-155.15 -305.93)"/></svg>