<?xml version="1.0" encoding="utf-8"?>
<!-- Generator: Adobe Illustrator 24.2.3, SVG Export Plug-In . SVG Version: 6.00 Build 0)  -->
<svg version="1.1" id="Yt_Bkgnd" xmlns="http://www.w3.org/2000/svg" xmlns:xlink="http://www.w3.org/1999/xlink" x="0px" y="0px"
	 viewBox="0 0 700 700" style="enable-background:new 0 0 700 700;" xml:space="preserve">
<style type="text/css">
	.st0{fill:#fff;}
	.st1{fill:#ff;}
</style>
<g>
	<g>
		<path class="st0" d="M251.09,300.94c-0.92-1.84-2.07-3.5-3.45-4.99c-1.38-1.49-2.93-2.76-4.66-3.8c-1.73-1.04-3.59-1.85-5.59-2.42
			c-2-0.57-4.08-0.86-6.24-0.86c-3.1,0-6.03,0.58-8.77,1.73s-5.13,2.74-7.17,4.77c-2.04,2.02-3.64,4.4-4.82,7.13
			c-1.18,2.73-1.77,5.67-1.77,8.83c0,3.13,0.59,6.06,1.77,8.79c1.18,2.73,2.79,5.1,4.82,7.11s4.43,3.59,7.17,4.75
			c2.74,1.15,5.67,1.73,8.77,1.73c2.14,0,4.2-0.28,6.2-0.84c2-0.56,3.86-1.36,5.59-2.4c1.73-1.04,3.28-2.31,4.67-3.8
			s2.54-3.15,3.46-4.99h4.62c-0.99,2.46-2.34,4.67-4.04,6.65c-1.7,1.97-3.63,3.65-5.79,5.03s-4.5,2.43-7,3.17
			c-2.51,0.73-5.08,1.1-7.71,1.1c-2.48,0-4.87-0.31-7.15-0.93c-2.28-0.62-4.43-1.5-6.43-2.63c-2-1.13-3.82-2.5-5.46-4.1
			c-1.64-1.6-3.04-3.38-4.19-5.33c-1.15-1.95-2.06-4.05-2.7-6.29c-0.65-2.25-0.97-4.59-0.97-7.02c0-2.46,0.32-4.82,0.97-7.08
			c0.65-2.26,1.55-4.36,2.7-6.31c1.15-1.95,2.55-3.72,4.19-5.33s3.46-2.97,5.46-4.1c2-1.13,4.14-2,6.43-2.63
			c2.28-0.62,4.67-0.93,7.15-0.93c2.63,0,5.2,0.37,7.71,1.1c2.51,0.73,4.84,1.78,7,3.15c2.16,1.37,4.09,3.04,5.77,5.03
			c1.69,1.99,3.03,4.22,4.02,6.7H251.09z"/>
		<path class="st0" d="M298.92,323.92h-27.49l-5.48,12.78h-4.66l21.72-50.66h4.32l21.72,50.66h-4.66L298.92,323.92z M273.07,320.05
			h24.17l-11.88-27.82l-0.19-0.63l-0.15,0.63L273.07,320.05z"/>
		<path class="st0" d="M317.95,322.43c0,1.47,0.38,2.87,1.14,4.23c0.76,1.35,1.78,2.56,3.07,3.61c1.29,1.06,2.8,1.9,4.53,2.53
			c1.73,0.63,3.56,0.95,5.49,0.95c5.21,0,9.2-0.91,11.96-2.74c2.76-1.83,4.13-4.54,4.13-8.14c0-1.86-0.4-3.41-1.21-4.66
			c-0.81-1.24-1.9-2.27-3.28-3.09c-1.38-0.82-2.99-1.46-4.84-1.94c-1.85-0.47-3.82-0.86-5.9-1.15c-1.27-0.15-2.59-0.33-3.97-0.54
			c-1.38-0.21-2.73-0.5-4.06-0.86c-1.33-0.36-2.59-0.82-3.78-1.38s-2.24-1.27-3.15-2.12c-0.91-0.86-1.63-1.89-2.16-3.11
			c-0.53-1.22-0.8-2.67-0.8-4.36c0-1.86,0.31-3.67,0.93-5.44c0.62-1.76,1.66-3.33,3.11-4.71c1.45-1.38,3.35-2.48,5.7-3.32
			c2.35-0.83,5.26-1.25,8.73-1.25c2.61,0,4.95,0.35,7.04,1.04c2.09,0.7,3.86,1.66,5.33,2.89s2.59,2.69,3.37,4.38
			c0.78,1.69,1.17,3.53,1.17,5.51h-4.4c0-1.51-0.31-2.88-0.93-4.1c-0.62-1.22-1.5-2.25-2.63-3.11c-1.13-0.86-2.48-1.51-4.06-1.97
			c-1.58-0.46-3.31-0.69-5.2-0.69c-2.66,0-4.87,0.3-6.65,0.91c-1.78,0.61-3.2,1.41-4.26,2.4c-1.07,0.99-1.82,2.11-2.25,3.35
			c-0.44,1.24-0.65,2.5-0.65,3.76c0,1.61,0.37,2.96,1.12,4.02c0.74,1.07,1.79,1.95,3.15,2.64c1.35,0.7,2.97,1.23,4.84,1.6
			c1.87,0.37,3.94,0.68,6.2,0.93c1.29,0.2,2.63,0.44,4.02,0.71c1.39,0.27,2.75,0.64,4.08,1.1c1.33,0.46,2.58,1.03,3.76,1.71
			c1.18,0.68,2.22,1.52,3.11,2.51c0.89,0.99,1.6,2.17,2.12,3.54c0.52,1.37,0.78,2.96,0.78,4.77c0,2.31-0.45,4.38-1.36,6.2
			c-0.91,1.83-2.23,3.38-3.97,4.66c-1.74,1.28-3.88,2.26-6.43,2.94s-5.47,1.02-8.77,1.02c-2.83,0-5.39-0.45-7.69-1.34
			c-2.3-0.89-4.25-2.06-5.85-3.5c-1.6-1.44-2.84-3.07-3.71-4.9s-1.3-3.67-1.3-5.53H317.95z"/>
		<path class="st0" d="M394.72,323.92h-27.49l-5.48,12.78h-4.66l21.72-50.66h4.32l21.72,50.66h-4.66L394.72,323.92z M368.87,320.05
			h24.17l-11.88-27.82l-0.19-0.63l-0.15,0.63L368.87,320.05z"/>
	</g>
	<g>
		<path class="st1" d="M206.5,348.86h24.41c6.79,0,12.05,1.91,15.56,5.42c2.97,2.98,4.58,7.17,4.58,12.21v0.15
			c0,8.62-4.65,14.04-11.44,16.56l13.05,19.07h-13.73l-11.45-17.09h-0.15h-9.08v17.09H206.5V348.86z M230.16,374.8
			c5.72,0,9-3.05,9-7.55v-0.15c0-5.04-3.51-7.63-9.23-7.63h-11.67v15.33H230.16z"/>
		<path class="st1" d="M259.29,375.72v-0.15c0-15.18,11.98-27.62,28.46-27.62c16.48,0,28.31,12.28,28.31,27.47v0.15
			c0,15.18-11.98,27.62-28.46,27.62C271.12,403.18,259.29,390.9,259.29,375.72z M303.77,375.72v-0.15c0-9.16-6.71-16.79-16.18-16.79
			c-9.46,0-16.02,7.48-16.02,16.63v0.15c0,9.15,6.71,16.79,16.17,16.79C297.21,392.35,303.77,384.87,303.77,375.72z"/>
		<path class="st1" d="M324.13,375.72v-0.15c0-15.18,11.44-27.62,27.85-27.62c10.07,0,16.1,3.36,21.06,8.24l-7.48,8.62
			c-4.12-3.74-8.32-6.03-13.66-6.03c-9,0-15.49,7.48-15.49,16.63v0.15c0,9.15,6.33,16.79,15.49,16.79c6.11,0,9.84-2.44,14.04-6.26
			l7.48,7.55c-5.49,5.88-11.6,9.54-21.9,9.54C335.81,403.18,324.13,391.05,324.13,375.72z"/>
		<path class="st1" d="M401.11,348.48h10.83l22.89,53.79h-12.28l-4.88-11.98h-22.58l-4.88,11.98h-11.98L401.11,348.48z
			 M413.47,379.91l-7.09-17.32l-7.1,17.32H413.47z"/>
		<path class="st1" d="M465.94,348.86h11.75v23.35l21.67-23.35h14.19l-21.74,22.66l22.74,30.75h-14.11l-16.56-22.74l-6.18,6.41
			v16.33h-11.75V348.86z"/>
		<path class="st1" d="M572.74,348.86h11.75v42.73h26.63v10.68h-38.38V348.86z"/>
		<path class="st1" d="M614.55,375.72v-0.15c0-15.18,11.98-27.62,28.46-27.62c16.48,0,28.31,12.28,28.31,27.47v0.15
			c0,15.18-11.98,27.62-28.46,27.62C626.37,403.18,614.55,390.9,614.55,375.72z M659.03,375.72v-0.15c0-9.16-6.71-16.79-16.18-16.79
			c-9.46,0-16.02,7.48-16.02,16.63v0.15c0,9.15,6.71,16.79,16.18,16.79C652.46,392.35,659.03,384.87,659.03,375.72z"/>
	</g>
	<g>
		<polygon class="st0" points="177.17,283.6 193.57,298.24 193.57,316.73 156.46,283.6 		"/>
		<polygon class="st1" points="139.73,283.6 193.57,331.66 193.57,350.15 119.03,283.6 		"/>
		<path class="st0" d="M53.86,334.62v-33.75h19.49v16.35l33.31-29.73l86.92,77.6v38.23c-74.69-66.69-37.99-33.92-82.44-73.6
			l-82.45,73.6v-46.23L53.86,334.62z"/>
	</g>
	<path class="st0" d="M559.42,333.55l-1.32,0.5l-36.06,13.97c-0.68,0.26-1.11,0.9-1.11,1.61v50.76c0,0.73,0.43,1.37,1.11,1.63
		l36.86,14.25c1.14,0.45,2.36-0.4,2.36-1.61v-79.79C560.95,334.1,560.24,333.56,559.42,333.55z M528.95,355.71l21.04-6.42v21.44
		l-22.27,2.12v-15.48C527.73,356.61,528.23,355.93,528.95,355.71z M547.81,400.16l-18.8-5.1c-0.76-0.21-1.28-0.89-1.28-1.67v-15.5
		l22.27,0.74v19.87C549.99,399.63,548.91,400.46,547.81,400.16z"/>
</g>
</svg>
